<?xml version="1.0" encoding="UTF-8"?><svg id="a" xmlns="http://www.w3.org/2000/svg" xmlns:xlink="http://www.w3.org/1999/xlink" viewBox="0 0 1080 1080"><defs><style>.l{fill:url(#c);}.m{font-family:Howvetica, Howvetica;font-size:123.59px;}.n{fill:url(#f);}.o{fill:url(#g);}.p{fill:url(#b);}.q{fill:#231f20;}.q,.r{font-family:ArialMT, Arial;font-size:50px;}.s{fill:url(#i);}.t{fill:url(#h);}.u{fill:url(#d);}.v{fill:url(#e);}.w{fill:url(#j);}.x{fill:url(#k);}.y{fill:#010101;}</style><linearGradient id="b" x1="388.82" y1="455.25" x2="812.36" y2="455.25" gradientTransform="matrix(1, 0, 0, 1, 0, 0)" gradientUnits="userSpaceOnUse"><stop offset="0" stop-color="#0a78be"/><stop offset="1" stop-color="#33358f"/></linearGradient><linearGradient id="c" x1="267.64" y1="455.25" x2="552" y2="455.25" gradientTransform="matrix(1, 0, 0, 1, 0, 0)" gradientUnits="userSpaceOnUse"><stop offset="0" stop-color="#f8c016"/><stop offset="1" stop-color="#ee3325"/></linearGradient><linearGradient id="d" x1="235.04" y1="673.99" x2="560.06" y2="673.99" xlink:href="#c"/><linearGradient id="e" x1="235.04" y1="673.99" x2="560.06" y2="673.99" xlink:href="#c"/><linearGradient id="f" x1="235.04" y1="673.99" x2="560.06" y2="673.99" xlink:href="#c"/><linearGradient id="g" x1="235.04" y1="673.99" x2="560.06" y2="673.99" xlink:href="#c"/><linearGradient id="h" x1="566.83" y1="674.02" x2="845.86" y2="674.02" xlink:href="#b"/><linearGradient id="i" x1="566.83" y1="674.02" x2="845.86" y2="674.02" xlink:href="#b"/><linearGradient id="j" x1="566.83" y1="674.02" x2="845.86" y2="674.02" xlink:href="#b"/><linearGradient id="k" x1="566.83" y1="674.02" x2="845.86" y2="674.02" xlink:href="#b"/></defs><g><path class="p" d="M578.7,502.24c.11-.26,.23-.5,.35-.74,.76-1.54,1.6-2.79,2.57-3.78,2.26-2.3,5.23-3.21,9.58-3.17,38.15,.38,76.32-.39,114.45,.41,21.6,.45,35.75-7.68,45.89-27.2,19.33-37.21,40.44-73.5,60.82-110.18v-9.47c-2.95-11-7.41-14.56-18.86-15-3.14-.12-6.3-.05-9.45-.05-51.52,0-103.05-.06-154.57,0-17.54,0-34.43-6.13-48.2-16.99-.06-.05-.13-.1-.19-.15-39.26-30.64-94.75-24.37-136.4-2.58,31.44-2.52,64.05-2.64,92.86,10.79,42.84,20.35,46.63,63.84,32.78,104.7-24.36,70.78-88.72,133.2-152.34,171.09-9.39,5.53-19.1,10.67-29.17,15.65,19.72-1.01,39.32-5.74,57.91-12.45,18.68-6.99,36.84-16.08,53.94-26.99,17.06-10.89,37.52-14.81,57.46-11.32,.1,.02,.21,.03,.31,.05,11.45,1.92,23.09,.68,34.64,.7,13.36,.03,26.72,.04,40.08,.05-4.21,11.07-2.08,24.2,5.89,33.73,4.69,5.6,11.41,7.91,17.41,11.41h13.25c.5-.43,.94-1.12,1.52-1.26,15.37-3.92,25.03-15.61,25.41-30.85,.11-4.56-.68-8.97-2.23-13.01,24.9,0,49.79,.03,74.69,.11,5.61,.02,8.13-.89,7.61-7.19-.59-7.31-.49-14.74-.02-22.08,.34-5.35-1.55-6.56-6.66-6.52-31.57,.22-63.14,.11-94.72,.11-33.41,0-66.83,.04-100.24-.03-8.93-.01-10.1-2.01-6-9.82,3.15-6.02,6.85-11.78,9.63-17.96Zm100.69,75.87c-.19,7.22-4.76,12.76-12.05,14.62-.27,.07-.48,.39-.71,.59h-6.28c-2.85-1.65-6.03-2.75-8.25-5.4-4.55-5.44-5.09-13.33-1.2-19.04,.85-1.26,1.86-2.36,2.99-3.28,4.05-3.36,9.62-4.55,14.77-2.92,1.97,.62,3.74,1.63,5.24,2.93,3.51,3.01,5.61,7.57,5.49,12.5Z"/><path class="y" d="M581.62,362.27c-.84,1.27-1.7,2.53-2.57,3.78,.76-1.54,1.6-2.79,2.57-3.78Z"/><path class="l" d="M511.48,326.32c-2.71-4.63-210.68-.11-214.37-1.64-4.91,0-8.87,4.15-8.55,9.14,.29,4.56,4.28,8,8.84,8,49.86,.02,99.72,.12,149.58-.17,7.45-.05,8.94,1.79,8.64,7.54-.53,10.37-.13,10.38-12.14,10.38h-80.47c-8.63,.94-24.83-4.18-25.71,8.67,0,4.79,3.89,8.68,8.68,8.68,32.34,0,64.68-.02,97.02-.14,8.09-.03,10.18,1.19,9.99,5.92-.48,11.97-.05,11.97-20.21,11.97h-42.22c-11.34-.14-11.32,17.61,0,17.46,35.69-.03,71.5,.15,107.17-.11,6.2-.05,8.05,1.09,7.89,5.89-.39,11.9-.04,11.91-15.94,11.91-54.78,0-109.54-.09-164.31,.07-11.31-.12-11.32,17.65,.03,17.49,55.7,0,111.38,.02,167.08-.15,10.26-.03,15.04,1.07,12.98,7.22-1.11,7.07,3.52,11.06-9.21,10.64-73.34-.24-146.72-.08-220.07-.12-11.37-.16-11.43,17.82,.04,17.61,4.15-.01,8.3-.06,12.44-.15,3.21-.08,4.25,.91,4.16,5.81-.18,9.6-.08,11.52-4.28,11.89-10.58-1.39-7.19,7.03-7.7,13.82,0,2.06,1.67,3.74,3.74,3.74h46.28c12.06,2.35,107.04-5.74,101.18,5.2-.38,12.57,.11,12.57-21.6,12.57-39.38,0-78.77-.05-118.16,0-2.06,0-3.74,1.68-3.74,3.74v9.85c0,2.98,2.98,4.13,5.57,3.74,40.39,0,80.78,.13,121.16-.12,8.08-.04,10.32,1.23,10.14,5.97-.45,11.9-.04,11.9-20.78,11.9-37.44,0-74.9-.02-112.35-.02-5.06-.1-5.09,15.91,0,15.82,0,0,93.93,0,124.41,0,6.27,0,12.35-2.11,17.27-6,70-55.4,177.28-188.72,77.51-254.02Zm-44.52,68.39c-8.4,1.64-8.28-3.4-7.56-7.77q0-10.06,10.45-10.05c7.67,0,7.01,.05,7.84,10.99,.76,10.01-6.21,5.94-10.73,6.83Zm-49.07,93.53c-.3,11.98-.04,11.99-11.19,11.99-31.65,0-63.31-.1-94.96,.11-4.74,.03-6.59-.88-6.37-6.47,.45-11.31,.11-11.33,10.63-11.33,28.92-.09,67.69,.23,96.23-.11,4.36-.08,5.78,.91,5.66,5.81Zm15.64,11.98c-7.82,.06-7.11-.05-8.03-10.67-.77-8.94,4.87-6.9,10.69-7.02,7.63,.01,6.79,.09,7.87,10.03,1.06,9.82-5.22,7.61-10.53,7.66Zm18.18,35.25c-7.62,0-6.96-.05-7.83-10.92-.66-8.33,4.17-7.17,7.75-6.87q10.57,0,10.57,8.89t-10.49,8.9Z"/></g><g><g><text class="m" transform="translate(230.76 718.23)"><tspan x="0" y="0">Scan</tspan></text><g><path class="u" d="M235.04,686.54l26.01,.79c.56,4.22,1.71,7.44,3.44,9.66,2.82,3.58,6.84,5.37,12.07,5.37,3.9,0,6.91-.91,9.02-2.75,2.11-1.83,3.17-3.95,3.17-6.37s-1.01-4.34-3.02-6.16c-2.01-.2-6.68-1.11-14-2.71-11.99-2.7-20.54-6.28-25.65-10.74-5.15-4.47-7.72-10.96-7.72-19.49,0-4.55,1.32-8.84,3.95-12.88,2.63-4.04,6.6-7.22,11.89-9.53,5.29-2.31,12.54-3.47,21.75-3.47,11.3,0,19.92,2.1,25.86,6.31,5.93,4.2,9.46,11.29,10.59,21.27l-25.77,.3c-.68-3.98-2.12-6.88-4.31-8.69-2.19-1.81-5.22-2.72-9.08-2.72-3.18,0-5.57,.67-7.18,2.02-1.61,1.35-2.41,2.99-2.41,4.92,0,1.41,.66,2.68,1.99,3.8,1.29,2.78,4.35,4.67,9.17,5.67,11.95,2.58,20.51,5.18,25.68,7.82,5.17,2.63,8.93,5.9,11.28,9.81,2.35,3.9,3.53,7.46,3.53,10.68,0,5.67-1.57,10.9-4.71,15.69-3.14,4.79-7.52,8.42-13.16,10.89-5.63,2.47-12.73,3.71-21.3,3.71-15.05,0-25.47-2.9-31.26-8.69-5.79-5.79-9.07-13.96-9.84-24.5Z"/><path class="v" d="M375.23,693.18l23.35-.36c-1.29,6.88-3.4,12.1-6.34,15.66-2.94,3.56-6.69,6.33-11.25,8.3-4.57,1.97-10.37,2.96-17.41,2.96s-12.46-.63-16.99-1.9c-4.53-1.27-8.42-3.32-11.68-6.16-3.26-2.84-5.81-6.16-7.66-9.99-1.85-3.82-2.78-8.89-2.78-15.21s1.13-12.09,3.38-16.47c1.65-3.22,3.9-6.1,6.76-8.66,2.86-2.55,5.79-4.46,8.81-5.7,4.79-1.97,10.92-2.96,18.41-2.96,10.46,0,18.44,1.87,23.93,5.61,5.49,3.74,9.34,10.22,11.56,19.43l-23.11,.06c-.72-2.74-2.04-4.8-3.95-6.19-1.91-1.39-4.48-2.08-7.69-2.08-4.06,0-7.35,1.46-9.87,4.38-2.51,2.92-3.77,7.33-3.77,13.25,0,5.27,1.25,9.27,3.74,12.01,2.49,2.74,5.67,4.1,9.53,4.1,3.22,0,5.92-.82,8.12-2.47,2.19-1.65,3.83-4.18,4.92-7.6Z"/><path class="n" d="M475.52,650.88v67.35h-21.18v-9.47c-3.22,4.02-6.16,6.74-8.81,8.15-3.54,1.85-7.48,2.78-11.83,2.78-8.73,0-15.4-3.32-20-9.96-4.61-6.64-6.91-14.7-6.91-24.2,0-10.62,2.54-18.75,7.63-24.38,5.09-5.63,11.56-8.45,19.4-8.45,3.82,0,7.29,.64,10.41,1.93,3.12,1.29,5.88,3.22,8.3,5.79v-9.54h22.99Zm-22.81,35.12c0-5.03-1.07-8.78-3.2-11.25-2.13-2.47-4.83-3.71-8.09-3.71-2.86,0-5.25,1.19-7.18,3.56-1.93,2.37-2.9,6.36-2.9,11.95,0,5.23,1,9.06,2.99,11.5,1.99,2.43,4.46,3.65,7.39,3.65,3.14,0,5.75-1.23,7.85-3.68,2.09-2.45,3.14-6.46,3.14-12.01Z"/><path class="o" d="M492.3,654.14h22.87v10.44c3.42-4.26,6.88-7.31,10.38-9.14,3.5-1.83,7.76-2.75,12.79-2.75,6.8,0,12.12,2.02,15.96,6.06,3.84,4.04,5.76,10.29,5.76,18.74v40.73h-24.68v-35.24c0-4.02-.75-6.87-2.23-8.54-1.49-1.67-3.58-2.5-6.28-2.5-2.98,0-5.39,1.13-7.24,3.38-1.85,2.25-2.78,6.3-2.78,12.13v30.78h-24.56v-64.09Z"/></g></g><g><text class="m" transform="translate(560.97 718.23)"><tspan x="0" y="0">Cart</tspan></text><g><path class="t" d="M628.92,682.08h23.96c-1.61,11.55-4.14,19.57-7.6,24.08-3.46,4.51-7.75,7.91-12.88,10.2-5.13,2.29-11.66,3.44-19.58,3.44-9.62,0-17.47-1.4-23.56-4.19-6.1-2.8-11.36-7.71-15.78-14.75-4.43-7.04-6.64-16.05-6.64-27.03,0-14.64,3.89-25.9,11.68-33.76,7.79-7.86,18.8-11.8,33.04-11.8,24.5,.2,38,11.18,40.49,32.95l-24.14-.06c-.84-2.69-1.73-4.67-2.66-5.91-1.53-2.09-3.4-3.7-5.61-4.83-2.21-1.13-4.69-1.69-7.42-1.69-6.2,0-10.94,2.5-14.24,7.48-2.5,3.7-3.74,9.51-3.74,17.44,0,9.82,1.49,16.54,4.46,20.18,2.98,3.64,7.16,5.46,12.55,5.46s9.18-1.47,11.86-4.41c2.67-2.94,4.62-7.2,5.82-12.79Z"/><path class="s" d="M730.18,650.88v67.35h-21.18v-9.47c-3.22,4.02-6.16,6.74-8.81,8.15-3.54,1.85-7.48,2.78-11.83,2.78-8.73,0-15.4-3.32-20-9.96-4.61-6.64-6.91-14.7-6.91-24.2,0-10.62,2.54-18.75,7.63-24.38,5.09-5.63,11.56-8.45,19.4-8.45,3.82,0,7.29,.64,10.41,1.93,3.12,1.29,5.88,3.22,8.3,5.79v-9.54h22.99Zm-22.81,35.12c0-5.03-1.07-8.78-3.2-11.25-2.13-2.47-4.83-3.71-8.09-3.71-2.86,0-5.25,1.19-7.18,3.56-1.93,2.37-2.9,6.36-2.9,11.95,0,5.23,1,9.06,2.99,11.5,1.99,2.43,4.46,3.65,7.39,3.65,3.14,0,5.75-1.23,7.84-3.68,2.09-2.45,3.14-6.46,3.14-12.01Z"/><path class="w" d="M747.2,654.14h22.99v10.5c2.21-4.55,4.5-7.67,6.85-9.38,2.35-1.71,5.26-2.56,8.72-2.56l4.65,3.38-.36,17.5c-2.9-1.21-5.19-1.81-6.88-1.81-3.22,0-5.71,1.33-7.48,3.98-2.53,3.74-3.8,10.74-3.8,21v21.48h-24.68v-64.09Z"/><path class="x" d="M831.44,629.76v24.38h13.52v17.92h-13.52v22.75c0,2.74,.26,4.55,.78,5.43,.8,1.37,2.21,2.05,4.22,2.05,1.81,0,4.34-.52,7.6-1.57l1.81,16.96c-6.08,1.33-11.75,1.99-17.02,1.99-6.12,0-10.62-.78-13.52-2.35s-5.04-3.95-6.43-7.15c-1.39-3.2-2.08-8.38-2.08-15.54v-22.57h-9.05v-17.92h9.05v-11.77l24.62-12.61Z"/></g></g><g><text class="r" transform="translate(771.43 768.83)"><tspan x="0" y="0">Pro</tspan></text><text class="q" transform="translate(771.43 768.83)"><tspan x="0" y="0">Pro</tspan></text></g></g></svg>